<svg xmlns="http://www.w3.org/2000/svg" version="1.0" width="670.000000pt" height="382.000000pt" viewBox="0 0 670.000000 382.000000" preserveAspectRatio="xMidYMid meet">
<metadata>
Created by potrace 1.16, written by Peter Selinger 2001-2019
</metadata>
<g transform="translate(0.000000,382.000000) scale(0.100000,-0.100000)" fill="#000000" stroke="none">
<path d="M3548 3799 c-27 -12 -48 -25 -48 -30 0 -5 -4 -9 -10 -9 -22 0 -221 -198 -261 -260 -9 -14 -36 -46 -60 -71 -51 -53 -81 -89 -74 -89 3 0 -3 -8 -12 -18 -23 -24 -34 -39 -106 -134 -32 -43 -60 -78 -62 -78 -6 0 34 102 46 116 5 6 6 14 2 17 -3 4 -2 7 4 7 6 0 18 17 26 38 36 89 61 142 69 142 4 0 8 4 8 10 0 5 11 33 24 62 28 62 56 143 56 162 0 7 -9 21 -20 31 -23 21 -65 14 -80 -14 -5 -11 -17 -26 -25 -35 -23 -23 -131 -193 -161 -253 -15 -29 -30 -53 -33 -53 -4 0 -18 -24 -31 -52 -14 -29 -31 -60 -38 -68 -15 -15 -59 -94 -109 -190 -15 -30 -31 -57 -34 -60 -4 -3 -21 -34 -39 -70 -18 -36 -35 -67 -39 -70 -3 -3 -19 -30 -35 -60 -66 -129 -98 -185 -109 -192 -6 -4 -8 -10 -4 -14 4 -4 1 -12 -6 -18 -8 -6 -22 -31 -32 -56 -10 -25 -24 -50 -30 -55 -7 -6 -25 -37 -40 -70 -16 -33 -33 -63 -39 -67 -6 -4 -7 -8 -2 -8 5 0 2 -8 -6 -17 -9 -10 -26 -40 -38 -68 -12 -27 -26 -52 -30 -55 -3 -3 -22 -36 -40 -75 -18 -38 -36 -72 -40 -75 -4 -3 -19 -32 -34 -64 -16 -32 -37 -68 -47 -79 -10 -12 -19 -24 -19 -29 0 -4 -15 -8 -33 -8 -18 0 -37 -4 -43 -10 -5 -5 -63 -17 -129 -25 -66 -9 -128 -20 -138 -26 -9 -5 -119 -23 -244 -40 -125 -16 -230 -33 -233 -38 -3 -4 -45 -13 -94 -19 -49 -7 -92 -16 -95 -20 -3 -5 -33 -12 -66 -16 -33 -4 -61 -11 -63 -16 -2 -6 -17 -10 -33 -10 -16 0 -29 -4 -29 -10 0 -5 -6 -10 -14 -10 -43 0 -21 -83 26 -99 35 -12 85 -4 92 15 3 8 12 14 21 14 8 0 15 4 15 9 0 5 26 13 58 17 31 4 59 10 62 15 3 4 93 19 200 34 107 14 199 30 205 34 5 5 87 19 180 31 94 12 175 26 180 30 16 13 105 24 105 13 0 -12 -49 -106 -59 -113 -3 -3 -19 -32 -35 -65 -16 -33 -32 -62 -35 -65 -9 -7 -30 -53 -32 -70 -4 -33 21 -70 49 -70 19 0 69 55 93 103 12 23 25 44 29 47 4 3 15 21 25 40 9 19 24 43 33 53 8 9 11 17 6 17 -5 0 -4 4 2 8 6 4 21 26 33 50 29 57 70 102 93 102 10 0 18 4 18 8 0 4 64 16 143 26 78 10 147 22 152 26 6 5 67 16 135 25 69 9 133 20 143 26 10 5 77 18 150 28 73 11 141 22 152 26 16 6 17 5 5 -4 -8 -6 -11 -11 -6 -11 5 0 3 -7 -4 -15 -7 -8 -9 -15 -4 -15 5 0 4 -4 -2 -8 -6 -4 -25 -47 -42 -97 -41 -119 -97 -273 -113 -310 -7 -16 -12 -33 -11 -37 1 -5 -3 -8 -9 -8 -6 0 -9 -7 -5 -15 3 -8 2 -15 -3 -15 -4 0 -13 -18 -20 -40 -11 -39 -13 -40 -59 -42 -26 -1 -60 -3 -77 -4 -16 -2 -183 -3 -370 -4 -404 -2 -806 7 -1135 25 -41 2 -145 6 -230 10 -85 3 -193 8 -240 10 -47 2 -175 7 -285 10 -110 4 -237 10 -282 14 -113 9 -134 -2 -117 -66 7 -26 32 -30 41 -7 5 13 18 15 82 10 42 -4 146 -9 231 -11 223 -7 421 -15 525 -20 104 -5 296 -14 440 -20 406 -17 1178 -25 1330 -13 49 4 93 4 98 -1 7 -7 -30 -127 -58 -188 -8 -17 -15 -36 -15 -42 0 -6 -5 -11 -11 -11 -6 0 -9 -7 -5 -15 3 -8 1 -15 -5 -15 -6 0 -9 -6 -6 -14 3 -8 2 -16 -2 -18 -5 -2 -27 -55 -49 -118 -38 -106 -74 -203 -89 -240 -3 -8 -7 -17 -7 -20 -1 -3 -7 -15 -14 -27 -7 -12 -30 -73 -53 -135 -22 -62 -47 -129 -56 -148 -10 -19 -16 -38 -15 -42 1 -5 -3 -8 -9 -8 -6 0 -9 -7 -5 -15 3 -8 2 -15 -3 -15 -5 0 -16 -21 -26 -47 -20 -52 -13 -74 26 -84 54 -14 97 44 145 195 10 31 21 56 26 56 4 0 5 7 2 15 -4 8 -1 15 6 15 6 0 9 4 5 9 -3 5 -1 12 4 15 5 4 22 43 37 89 14 45 30 87 34 92 4 6 22 54 40 107 18 54 38 98 43 98 5 0 7 7 3 15 -3 8 -1 15 5 15 6 0 9 6 6 14 -3 8 -2 16 2 18 5 2 27 55 49 118 67 187 85 235 95 241 5 4 6 12 3 18 -4 6 -2 11 4 11 7 0 10 7 6 15 -3 8 -2 15 3 15 4 0 13 12 20 26 8 18 17 25 30 21 19 -5 537 61 641 81 30 6 96 18 145 27 50 9 106 20 125 25 119 31 317 88 350 102 30 12 90 27 90 22 0 -2 -8 -11 -18 -21 -26 -26 -91 -110 -132 -168 -18 -27 -37 -52 -40 -55 -3 -3 -17 -21 -30 -40 -13 -19 -27 -37 -30 -40 -3 -3 -17 -21 -30 -40 -13 -19 -30 -41 -37 -48 -8 -8 -21 -28 -30 -45 -8 -17 -22 -37 -29 -45 -8 -7 -14 -17 -14 -21 0 -4 -8 -16 -18 -27 -10 -10 -31 -41 -46 -69 -16 -27 -32 -52 -36 -55 -4 -3 -20 -30 -36 -60 -16 -30 -36 -62 -45 -72 -9 -10 -22 -37 -29 -59 -8 -22 -17 -42 -22 -45 -11 -7 -51 -97 -71 -159 -43 -131 -43 -185 0 -231 22 -24 29 -25 71 -19 26 4 49 11 50 16 2 5 10 9 18 9 24 0 151 118 179 168 11 17 23 32 27 32 4 0 14 13 23 29 8 16 20 35 27 43 7 7 19 25 27 40 8 15 21 36 30 45 9 10 29 43 45 73 16 30 34 62 41 70 7 8 23 38 36 65 13 28 27 52 31 55 4 3 18 29 31 57 13 29 30 59 37 68 7 8 9 15 4 15 -5 0 -4 4 2 8 12 7 74 135 74 152 0 6 4 10 8 10 5 0 17 19 27 43 10 23 30 67 44 97 13 30 24 58 23 63 -1 4 2 7 7 7 5 0 13 10 16 23 4 12 18 46 31 74 13 29 26 64 30 78 3 14 10 25 16 25 5 0 6 5 3 10 -3 6 -2 10 3 10 6 0 13 11 16 25 4 14 12 25 19 25 17 0 223 86 265 110 19 12 62 32 96 46 33 14 183 86 333 160 150 74 277 134 283 134 6 0 8 5 5 10 -4 6 7 10 24 10 17 0 31 3 31 8 0 4 15 13 33 21 17 8 34 17 37 20 4 5 35 23 95 55 11 6 22 14 25 17 3 4 52 35 110 70 58 34 134 82 170 105 67 43 105 64 114 64 3 0 14 -17 25 -38 11 -22 35 -59 54 -84 l35 -45 -44 -37 c-24 -20 -119 -83 -211 -139 -326 -200 -365 -234 -365 -318 0 -88 71 -159 187 -185 11 -2 76 3 145 12 112 15 132 21 191 55 104 60 222 186 280 299 34 65 31 147 -8 202 -15 23 -32 48 -38 57 -5 9 -18 22 -28 29 -16 12 -11 20 58 94 85 92 130 175 140 259 6 50 4 60 -14 78 -34 34 -90 28 -177 -18 -41 -22 -71 -34 -67 -28 8 14 77 107 145 194 26 34 48 65 48 68 0 4 13 23 29 43 16 20 50 76 75 124 43 82 46 91 40 141 -6 54 -6 54 -54 69 -41 13 -60 13 -141 2 -52 -7 -99 -13 -105 -14 -25 0 -117 -109 -150 -175 -50 -103 -84 -270 -84 -414 l0 -116 -76 -45 c-42 -25 -88 -59 -101 -77 -29 -37 -82 -60 -96 -41 -6 9 -7 8 -3 -4 4 -13 -2 -20 -22 -24 -15 -4 -34 -14 -42 -23 -19 -20 -49 -40 -72 -47 -10 -4 -18 -10 -18 -15 0 -5 -7 -9 -15 -9 -8 0 -15 -3 -15 -7 0 -8 -1 -9 -128 -72 -87 -44 -142 -52 -176 -26 -16 12 -19 27 -18 100 1 106 -7 116 -81 108 -83 -9 -244 -98 -317 -174 -8 -8 -23 -18 -32 -22 -10 -3 -18 -11 -18 -17 0 -5 -4 -10 -9 -10 -9 0 -58 -40 -113 -93 -16 -15 -31 -27 -34 -27 -2 0 -20 -16 -40 -35 -19 -19 -39 -35 -44 -35 -5 0 -13 -7 -18 -16 -8 -15 -10 -15 -15 0 -4 9 -2 16 4 16 6 0 9 7 6 15 -4 8 -2 17 4 20 5 4 7 10 5 14 -3 4 -1 36 4 70 7 52 6 71 -9 110 -10 25 -28 50 -40 56 -11 5 -21 12 -21 15 0 3 -18 4 -40 2 -22 -2 -40 -8 -40 -13 0 -5 -4 -9 -10 -9 -15 0 -85 -65 -177 -162 -7 -7 -18 -19 -25 -25 -7 -7 -17 -17 -23 -23 -36 -39 -89 -79 -97 -74 -6 4 -5 9 2 14 7 4 10 12 6 18 -3 6 -3 12 1 14 16 7 56 103 57 137 1 36 1 36 -38 33 -21 -2 -48 -13 -60 -24 -58 -54 -263 -107 -358 -92 -28 5 -50 0 -93 -21 -31 -16 -59 -34 -62 -42 -12 -31 -24 -10 -18 30 7 42 6 44 -26 57 -30 13 -33 12 -54 -14 -12 -15 -32 -61 -45 -102 -13 -41 -27 -74 -31 -74 -5 0 -6 -7 -3 -15 4 -8 1 -15 -5 -15 -6 0 -10 -3 -9 -7 1 -5 -4 -21 -10 -36 -10 -23 -9 -34 4 -58 14 -29 18 -30 57 -24 23 4 44 11 45 16 2 5 9 9 16 9 7 0 19 11 26 25 7 14 18 25 24 25 15 0 46 36 39 44 -4 3 -2 6 4 6 5 0 20 9 33 20 13 11 19 20 14 20 -5 0 9 9 30 21 41 22 134 41 141 29 6 -10 139 9 143 21 2 5 16 9 32 9 27 0 28 -1 20 -36 -11 -49 -1 -105 23 -126 15 -14 30 -16 61 -11 23 3 43 10 44 15 2 4 10 8 18 8 8 0 14 5 14 10 0 6 6 10 13 10 7 0 78 67 157 150 80 82 148 150 151 150 24 0 11 -90 -40 -275 -20 -73 -61 -142 -118 -203 -7 -7 -20 -25 -29 -41 -21 -36 -46 -51 -119 -72 -33 -9 -89 -26 -125 -37 -223 -68 -336 -98 -435 -116 -44 -8 -107 -20 -140 -26 -143 -27 -621 -87 -629 -79 -5 5 3 40 21 86 17 43 36 96 43 118 7 22 20 54 30 70 9 17 41 98 69 180 29 83 56 157 60 164 10 15 182 41 229 34 26 -4 37 0 57 21 28 31 29 36 14 70 -16 34 -39 37 -146 22 -51 -7 -93 -11 -93 -10 0 16 155 451 163 455 5 4 6 12 3 18 -4 6 -2 11 4 11 7 0 10 7 6 15 -3 8 -1 15 5 15 6 0 9 6 6 14 -3 8 -2 16 2 18 8 3 187 535 216 643 7 28 30 108 49 179 20 71 38 157 41 190 6 78 -3 166 -20 190 -21 28 -82 30 -137 5z m62 -113 c0 -8 -14 -66 -30 -130 -17 -65 -28 -121 -25 -127 4 -5 1 -9 -5 -9 -7 0 -10 -7 -6 -15 3 -8 1 -15 -5 -15 -6 0 -9 -7 -5 -15 3 -8 1 -15 -5 -15 -6 0 -9 -7 -6 -15 4 -8 2 -17 -4 -21 -6 -3 -8 -12 -5 -20 3 -8 1 -14 -5 -14 -6 0 -9 -7 -5 -15 3 -8 1 -15 -5 -15 -6 0 -9 -7 -5 -15 3 -8 1 -15 -5 -15 -6 0 -9 -7 -5 -15 3 -8 2 -15 -3 -15 -9 0 -57 -166 -55 -187 1 -7 -3 -13 -8 -13 -6 0 -8 -6 -5 -14 3 -8 2 -16 -2 -18 -4 -2 -47 -119 -95 -262 -47 -142 -92 -268 -98 -280 -7 -11 -13 -23 -13 -26 -1 -3 -7 -18 -13 -33 -7 -15 -33 -87 -58 -160 -26 -73 -51 -144 -56 -158 -11 -32 -46 -44 -173 -60 -55 -6 -105 -16 -111 -20 -6 -5 -63 -16 -125 -24 -63 -8 -136 -22 -164 -30 -48 -15 -254 -45 -303 -45 -21 0 -22 1 -7 16 8 9 23 30 32 47 9 18 33 55 53 82 20 28 44 64 53 80 8 17 26 43 40 59 14 16 31 41 39 55 7 14 19 32 26 39 7 8 19 27 27 43 9 16 19 29 23 29 4 0 19 21 32 47 14 26 32 54 40 63 35 39 48 59 43 64 -4 3 -1 6 5 6 6 0 26 26 46 58 19 31 82 120 140 197 58 76 103 141 101 143 -2 2 4 12 13 21 23 24 43 49 72 91 13 19 27 37 30 40 3 3 38 49 78 102 40 53 90 114 110 136 48 52 82 92 76 92 -2 0 4 9 14 20 16 19 266 271 287 290 15 14 35 12 35 -4z m3007 -482 c18 -3 30 -10 27 -15 -3 -5 -7 -17 -9 -28 -6 -33 -80 -173 -117 -221 -11 -14 -55 -72 -98 -130 -92 -123 -171 -210 -190 -210 -10 0 -12 21 -7 103 9 145 21 208 59 307 29 74 45 98 92 142 66 62 133 76 243 52z m-64 -581 c2 -5 -4 -40 -15 -79 -20 -72 -31 -89 -123 -185 l-54 -56 -29 31 c-32 33 -72 106 -72 130 0 15 88 74 195 133 59 32 90 40 98 26z m-143 -477 c52 -67 57 -117 18 -181 -10 -16 -22 -40 -28 -53 -19 -44 -173 -187 -232 -216 -151 -74 -311 -74 -380 0 -40 42 -49 71 -32 104 18 37 68 73 283 203 192 117 227 140 285 191 27 25 30 25 43 9 7 -10 26 -35 43 -57z m-1120 -30 c0 -7 15 -29 33 -48 l33 -35 -131 -66 c-180 -92 -437 -213 -515 -244 -36 -14 -75 -33 -88 -41 -12 -8 -25 -13 -27 -10 -6 6 74 108 84 108 4 0 14 11 21 25 7 14 17 25 22 25 5 0 28 19 52 43 133 129 136 132 136 105 0 -38 53 -63 113 -54 26 4 47 11 47 17 0 5 9 9 20 9 11 0 20 5 20 10 0 6 5 10 11 10 14 0 149 137 149 151 0 5 5 9 10 9 6 0 10 -6 10 -14z m-970 -780 c-16 -37 -30 -71 -30 -76 0 -6 -3 -10 -8 -10 -4 0 -13 -15 -21 -32 -33 -76 -65 -143 -72 -148 -8 -7 -69 -139 -69 -151 0 -5 -4 -9 -9 -9 -5 0 -22 -26 -37 -57 -15 -32 -30 -60 -33 -63 -4 -3 -20 -30 -35 -60 -16 -30 -34 -62 -41 -70 -7 -8 -20 -30 -29 -48 -10 -18 -25 -41 -34 -51 -9 -10 -33 -44 -52 -76 -39 -64 -150 -180 -180 -188 -11 -3 -20 -2 -20 1 0 22 53 162 62 162 6 0 8 6 5 14 -3 8 -2 16 2 18 5 2 23 30 40 63 55 104 80 146 96 162 9 8 22 30 30 49 8 19 19 34 25 34 6 0 8 5 5 10 -3 6 -2 10 3 10 6 0 19 20 31 45 12 25 25 45 29 45 5 0 18 18 31 40 12 22 25 40 29 40 4 0 16 17 27 38 11 20 22 39 25 42 3 3 17 21 30 40 13 19 27 37 30 40 3 3 17 21 30 40 13 19 29 40 35 46 5 6 37 47 70 92 33 44 61 79 63 77 2 -1 -11 -32 -28 -69z" fill="none" fill-opacity="" style="fill: none; stroke: rgb(240, 240, 240); stroke-dasharray: 54169.9; stroke-dashoffset: 54169.9; stroke-linecap: round; stroke-linejoin: round; stroke-opacity: 0; stroke-width: 1; animation-duration: 2.3s, 2.3s, 2.3s; animation-timing-function: ease-in-out, linear, ease-in-out; animation-delay: 0s, 0s, 0s; animation-iteration-count: infinite !important; animation-direction: normal, normal, normal; animation-fill-mode: forwards, forwards, forwards; animation-play-state: running, running, running; animation-name: stroke-draw-0, stroke-visible-0, stroke-width-0; animation-timeline: auto; animation-range: normal;" class="stroke-anim-0"/>
</g>
<style xmlns="http://www.w3.org/1999/xhtml" id="stroke-anim-style">@keyframes stroke-draw-0 { 0% { stroke-dashoffset: 54169.863; } 0.00% { stroke-dashoffset: 54169.863; } 65.22% { stroke-dashoffset: 0; } 100% { stroke-dashoffset: 0; } }
@keyframes stroke-visible-0 { 0% { stroke-opacity: 0; } 0.00% { stroke-opacity: 0; } 0.01% { stroke-opacity: 1; } 100% { stroke-opacity: 1; } }
@keyframes stroke-width-0 { 0% { stroke-width: 1; } 0.00% { stroke-width: 1; } 32.61% { stroke-width: 3.938; } 65.22% { stroke-width: 1; } 100% { stroke-width: 1; } }</style></svg>